<?xml version="1.0" standalone="no"?>
<!DOCTYPE svg PUBLIC "-//W3C//DTD SVG 20010904//EN"
 "http://www.w3.org/TR/2001/REC-SVG-20010904/DTD/svg10.dtd">
<svg version="1.0" xmlns="http://www.w3.org/2000/svg"
 width="512.000000pt" height="512.000000pt" viewBox="0 0 512.000000 512.000000"
 preserveAspectRatio="xMidYMid meet">
<metadata>
Created by potrace 1.11, written by Peter Selinger 2001-2013
</metadata>
<g transform="translate(0.000000,512.000000) scale(0.100000,-0.100000)"
fill="#000000" stroke="none">
<path d="M2379 4837 c-30 -25 -167 -148 -264 -236 -22 -20 -78 -70 -125 -111
-46 -41 -94 -84 -106 -95 -11 -11 -34 -31 -50 -45 -41 -36 -224 -199 -318
-284 -43 -39 -87 -78 -96 -86 -50 -44 -158 -140 -198 -177 -26 -24 -77 -69
-114 -100 -37 -32 -67 -61 -67 -64 -1 -4 35 -83 80 -175 45 -93 98 -205 119
-249 21 -44 77 -161 125 -260 48 -99 112 -232 142 -295 30 -63 84 -175 120
-250 36 -74 89 -184 118 -245 29 -60 87 -182 130 -270 113 -233 202 -418 245
-510 21 -44 82 -172 137 -285 55 -113 110 -229 124 -257 26 -56 43 -66 55 -31
3 12 49 110 101 217 123 254 203 419 257 534 50 105 146 305 266 552 45 94
106 220 135 280 121 253 167 349 250 520 48 99 111 230 140 290 29 61 85 177
125 259 40 83 73 157 74 165 2 8 -16 30 -38 50 -23 20 -43 38 -46 41 -3 3 -50
45 -105 94 -55 49 -109 98 -121 110 -12 11 -34 32 -50 45 -26 22 -171 150
-200 176 -6 6 -43 39 -84 75 -40 36 -86 78 -103 93 -17 15 -57 51 -90 80 -61
54 -110 98 -162 146 -16 15 -68 61 -115 102 -46 41 -105 93 -130 116 -84 77
-115 103 -125 103 -5 0 -22 -10 -36 -23z m211 -727 c84 -201 184 -439 222
-529 38 -90 66 -167 61 -171 -8 -8 -441 -143 -458 -143 -10 0 -200 58 -295 90
-25 8 -49 16 -55 17 -5 1 -34 10 -63 20 -37 12 -50 21 -44 29 5 7 25 55 46
107 21 52 44 109 51 125 8 17 28 66 46 110 17 44 39 98 49 120 9 22 35 85 58
140 22 55 64 155 91 222 28 68 51 125 51 128 0 2 11 28 24 57 13 29 27 62 31
73 6 19 7 19 20 -5 7 -14 81 -189 165 -390z m-386 228 c-4 -13 -17 -45 -29
-73 -13 -27 -26 -61 -30 -74 -4 -13 -14 -40 -23 -60 -9 -20 -17 -40 -18 -46
-3 -12 -199 -497 -218 -540 -8 -16 -19 -46 -26 -66 l-13 -36 -201 69 c-111 39
-218 75 -238 81 -22 7 -34 16 -30 22 4 6 45 44 92 85 47 41 90 79 96 85 16 15
153 137 178 158 12 10 35 31 51 46 47 42 133 119 225 201 47 41 107 96 135
122 27 26 51 48 53 48 2 0 0 -10 -4 -22z m496 -49 c73 -67 109 -100 205 -184
44 -38 84 -75 90 -81 5 -5 48 -44 95 -85 47 -40 87 -76 90 -79 3 -3 50 -45
105 -95 55 -49 117 -105 139 -125 l38 -37 -158 -53 c-88 -29 -193 -65 -235
-80 l-77 -27 -72 181 c-39 100 -78 195 -85 211 -7 17 -21 50 -30 75 -9 25 -21
54 -26 65 -39 88 -146 365 -141 365 4 0 32 -23 62 -51z m-1095 -883 c212 -70
227 -77 231 -98 1 -7 16 -74 34 -148 17 -74 34 -148 37 -164 2 -16 9 -40 14
-54 5 -14 7 -27 4 -30 -2 -3 0 -11 6 -19 6 -7 9 -13 6 -13 -3 0 1 -24 9 -52 8
-29 17 -68 20 -87 3 -19 10 -45 15 -58 5 -13 7 -23 4 -23 -2 0 2 -21 10 -47 8
-27 16 -59 19 -73 11 -54 16 -76 25 -115 5 -22 13 -53 17 -70 4 -16 8 -34 10
-40 1 -5 4 -21 7 -35 3 -14 15 -63 27 -110 11 -47 23 -98 25 -114 2 -15 7 -36
10 -46 3 -10 8 -28 10 -39 3 -12 7 -29 9 -38 3 -10 8 -34 11 -53 l6 -35 -19
40 c-154 319 -237 490 -352 730 -32 66 -90 188 -130 270 -40 83 -96 200 -125
260 -29 61 -77 161 -108 223 -30 62 -49 111 -43 109 6 -2 101 -34 211 -71z
m1792 -27 c-43 -90 -105 -220 -280 -579 -104 -216 -154 -324 -153 -330 0 -3
-9 -19 -22 -37 -12 -17 -22 -34 -22 -38 0 -4 -22 -53 -49 -109 -27 -56 -76
-158 -110 -228 -33 -70 -61 -131 -61 -137 0 -5 -5 -13 -11 -17 -9 -5 -10 1 -4
22 4 16 9 40 11 54 3 14 20 90 39 170 54 228 66 283 71 310 3 14 17 72 30 130
14 58 28 116 30 130 3 14 10 43 16 65 6 22 12 49 14 60 1 11 14 70 29 130 33
135 29 119 56 244 21 96 25 104 53 117 38 17 400 141 404 138 2 -1 -17 -44
-41 -95z m-1409 -101 c7 -7 12 -9 12 -6 0 4 16 0 35 -8 19 -8 36 -14 37 -13 2
1 44 -11 93 -27 50 -15 92 -28 95 -29 3 -1 38 -12 78 -25 l72 -24 73 22 c39
12 79 24 87 26 8 2 49 14 90 27 41 13 77 24 80 24 3 1 12 4 20 8 8 3 39 13 68
21 l52 15 -6 -27 c-3 -15 -13 -54 -21 -87 -8 -33 -17 -68 -19 -78 -2 -10 -19
-85 -39 -167 -20 -82 -38 -157 -40 -167 -2 -10 -4 -18 -5 -18 -1 0 -3 -8 -5
-19 -2 -10 -9 -41 -16 -70 -7 -28 -14 -53 -14 -56 -19 -89 -28 -127 -33 -135
-3 -5 -7 -16 -8 -25 -2 -24 -9 -53 -59 -255 -26 -104 -48 -197 -50 -205 -2 -8
-22 -91 -45 -185 -23 -93 -44 -181 -46 -195 -3 -14 -11 -46 -19 -72 -8 -27
-12 -48 -9 -48 3 0 2 -6 -3 -12 -4 -7 -9 -23 -11 -36 -1 -12 -7 -32 -11 -45
l-9 -22 -6 25 c-3 14 -17 75 -31 135 -14 61 -30 128 -36 150 -5 22 -12 49 -14
60 -2 11 -9 40 -16 65 -6 25 -12 54 -15 65 -2 11 -11 49 -20 84 -9 36 -17 72
-19 80 -2 9 -13 56 -25 105 -11 50 -22 99 -25 110 -2 12 -4 22 -4 24 -1 1 -1
3 0 5 0 1 -4 14 -9 28 -6 14 -13 43 -16 64 -4 21 -14 63 -22 93 -9 29 -17 64
-19 75 -2 12 -13 63 -25 112 -29 120 -29 122 -34 143 -2 9 -9 37 -16 62 -7 25
-14 56 -17 70 -2 14 -9 43 -14 65 -14 55 -39 165 -45 194 -3 14 -7 28 -9 32
-3 4 -7 23 -10 43 -6 37 2 45 23 24z"/>
<path d="M1363 739 c-46 -13 -100 -71 -114 -121 -12 -45 -7 -127 9 -168 27
-67 109 -106 204 -96 86 9 99 18 86 60 -10 31 -13 34 -35 25 -33 -12 -110 -11
-135 2 -24 13 -48 67 -48 109 0 96 64 143 157 115 42 -13 42 -13 52 18 15 42
15 43 -28 55 -45 14 -103 14 -148 1z"/>
<path d="M1640 740 l-25 -6 0 -184 0 -184 32 -7 c17 -3 36 -3 42 0 5 4 11 36
13 71 3 56 6 65 23 68 15 2 30 -14 64 -67 40 -64 46 -69 81 -73 21 -2 43 -2
49 0 10 3 -26 76 -64 127 l-23 31 28 16 c76 44 46 183 -44 204 -40 9 -144 12
-176 4z m173 -103 c3 -8 0 -25 -7 -38 -9 -19 -22 -25 -59 -29 l-47 -6 0 52 c0
50 1 53 28 56 31 4 77 -15 85 -35z"/>
<path d="M1930 735 c0 -6 29 -61 65 -123 63 -108 65 -114 65 -181 0 -69 0 -69
30 -73 47 -7 55 4 56 79 1 59 5 76 34 123 64 106 100 173 96 177 -4 4 -48 7
-76 4 -8 -1 -31 -33 -50 -72 -19 -39 -38 -73 -41 -75 -8 -4 -39 48 -65 109 -9
20 -21 37 -28 38 -65 4 -86 2 -86 -6z"/>
<path d="M2353 742 c-23 -3 -23 -4 -23 -195 l0 -192 44 3 44 4 -2 61 c-1 60 0
62 24 63 125 5 180 44 180 129 0 87 -54 127 -174 129 -39 1 -81 0 -93 -2z
m166 -86 c16 -10 13 -61 -4 -76 -8 -7 -33 -15 -55 -17 -32 -4 -40 -1 -41 11
-7 92 2 108 55 96 18 -4 39 -10 45 -14z"/>
<path d="M2660 708 c0 -35 3 -38 28 -39 15 0 41 -2 57 -2 l30 -2 0 -152 -1
-153 46 0 45 0 -3 156 c-2 123 0 155 10 153 7 -1 34 -1 59 0 l46 1 -2 37 -1
37 -157 1 -157 0 0 -37z"/>
<path d="M3115 736 c-74 -34 -106 -84 -110 -173 -5 -104 41 -180 125 -203 150
-42 273 70 248 227 -16 100 -72 153 -171 159 -40 3 -73 0 -92 -10z m150 -98
c43 -51 29 -169 -24 -198 -29 -15 -78 -12 -106 6 -66 43 -56 188 15 218 44 18
86 9 115 -26z"/>
<path d="M3484 742 l-30 -3 0 -192 c1 -106 4 -191 9 -189 4 1 23 2 42 2 l36 0
-2 116 c-1 63 1 117 4 120 6 6 85 -99 132 -176 33 -55 40 -60 71 -60 19 0 34
3 35 8 7 49 2 365 -6 370 -21 13 -75 7 -76 -8 0 -8 -1 -57 -1 -107 -1 -51 -5
-93 -10 -93 -4 0 -8 4 -8 9 0 11 -132 182 -151 196 -8 6 -28 9 -45 7z"/>
</g>
</svg>
