<?xml version="1.0" encoding="iso-8859-1"?>
<!-- Generator: Adobe Illustrator 19.0.0, SVG Export Plug-In . SVG Version: 6.00 Build 0)  -->
<svg version="1.1" id="Capa_1" xmlns="http://www.w3.org/2000/svg" xmlns:xlink="http://www.w3.org/1999/xlink" x="0px" y="0px"
	 viewBox="0 0 378.8 378.8" style="enable-background:new 0 0 378.8 378.8;" xml:space="preserve">
<path style="fill:#62C3D3;" d="M189.519,373.2c195.6-62.4,144.4-322.8,144.4-322.8L189.519,6l-144.4,44.4
	C45.119,50.4-6.081,311.2,189.519,373.2z"/>
<path style="fill:#EAEAEA;" d="M189.519,340c155.6-49.6,115.2-265.6,115.2-265.6l-115.2-35.2l-115.2,35.6
	C74.319,74.4,33.919,290.4,189.519,340z"/>
<circle style="fill:#F39200;" cx="189.519" cy="172" r="83.6"/>
<circle style="fill:#F0D215;" cx="189.519" cy="172" r="65.2"/>
<g>
	<path style="fill:#321D00;" d="M339.519,49.2l-0.8-3.2l-149.2-46l-149.6,46l-0.8,3.2c-0.4,2.8-50,266.4,148.4,329.2l1.6,0.4
		l1.6-0.4C389.519,315.6,340.319,52,339.519,49.2z M189.519,367.2C14.719,310,45.119,84.8,49.919,54.8l139.6-42.8l139.6,42.8
		C333.919,84.8,364.719,310,189.519,367.2z"/>
	<path style="fill:#321D00;" d="M309.519,70l-120-36.8l-120,36.8l-0.8,3.6c-0.4,2.4-40,221.6,118.8,272l1.6,0.4l1.6-0.4
		c158.8-50.4,119.2-269.6,118.8-272V70z M189.519,334c-136.8-45.2-114-228-110-255.2l110-33.6l110,34
		C303.519,106,326.319,288.8,189.519,334z"/>
	<path style="fill:#321D00;" d="M189.519,82.8c-49.2,0-89.2,40-89.2,89.2s40,89.2,89.2,89.2s89.2-40,89.2-89.2
		S238.719,82.8,189.519,82.8z M189.519,250c-43.2,0-78-35.2-78-78c0-43.2,35.2-78,78-78c43.2,0,78,35.2,78,78
		C267.519,215.2,232.719,250,189.519,250z"/>
	<path style="fill:#321D00;" d="M224.319,155.6c0-11.2-8.8-20.8-20-21.6v-6c0-3.2-2.4-5.6-5.6-5.6s-5.6,2.4-5.6,5.6v5.6h-7.6V128
		c0-3.2-2.4-5.6-5.6-5.6c-3.2,0-5.6,2.4-5.6,5.6v5.6h-8c-3.2,0-5.6,2.4-5.6,5.6c0,3.2,2.4,5.6,5.6,5.6h8V166c-3.2,0-5.6,2.4-5.6,5.6
		s2.4,5.6,5.6,5.6v21.2h-8c-3.2,0-5.6,2.4-5.6,5.6s2.4,5.6,5.6,5.6h8v5.6c0,3.2,2.4,5.6,5.6,5.6c3.2,0,5.6-2.4,5.6-5.6v-5.6h7.6v5.6
		c0,3.2,2.4,5.6,5.6,5.6s5.6-2.4,5.6-5.6v-6c11.2-1.2,20-10.4,20-21.6c0-6.4-2.8-12.4-7.2-16.4
		C221.519,168,224.319,162,224.319,155.6z M213.119,188.4c0,6-4.8,10.8-10.4,10.8h-17.2v-21.6h16.8
		C208.319,177.6,213.119,182.4,213.119,188.4z M185.519,166.4v-21.2h16.8c6,0,10.4,4.8,10.4,10.4c0,6-4.8,10.8-10.4,10.8H185.519z"
		/>
</g>
<g>
</g>
<g>
</g>
<g>
</g>
<g>
</g>
<g>
</g>
<g>
</g>
<g>
</g>
<g>
</g>
<g>
</g>
<g>
</g>
<g>
</g>
<g>
</g>
<g>
</g>
<g>
</g>
<g>
</g>
</svg>
