<svg xmlns="http://www.w3.org/2000/svg" xmlns:xlink="http://www.w3.org/1999/xlink" version="1.1" x="0px" y="0px" viewBox="0 0 100 100" enable-background="new 0 0 100 100" xml:space="preserve"><g><path fill="#000000" d="M6.262,47.917c0.732,0.337,1.681,0.626,2.705,0.901c0.757,0.206,1.531,0.408,2.438,0.584   c4.263,0.822,10.081,1.321,16.536,1.321c6.451,0,12.306-0.534,16.584-1.376c2.14-0.42,3.862-0.889,5.14-1.481   c0.642-0.297,1.18-0.614,1.592-1.01c0.411-0.392,0.636-0.762,0.636-1.377c0.032-1.152,0.056-2.346,0.105-3.551   c0-0.612-0.33-1.088-0.741-1.481c-0.412-0.396-0.95-0.714-1.592-1.01c-1.278-0.59-3.002-1.117-5.14-1.537   c-4.277-0.834-10.133-1.323-16.584-1.323c-6.455,0-12.311,0.488-16.588,1.323c-2.138,0.42-3.863,0.946-5.14,1.537   c-0.642,0.296-1.179,0.614-1.592,1.01c-0.358,0.343-0.562,0.765-0.632,1.27c0,1.41,0,2.878,0,4.036   c0.104,0.445,0.365,0.851,0.685,1.158C5.085,47.303,5.625,47.625,6.262,47.917z M7.217,46.488c-0.076-0.033-0.193-0.077-0.264-0.11   c-0.262-0.126-0.503-0.274-0.741-0.422v-1.482c0.28,0.129,0.681,0.248,1.005,0.368V46.488z M8.967,47.123   c-0.402-0.118-0.668-0.25-1.01-0.371v-1.643c0.324,0.106,0.65,0.216,1.01,0.318V47.123z M10.823,47.548   c-0.337-0.074-0.652-0.138-0.954-0.214v-1.696c0.322,0.079,0.609,0.192,0.954,0.266V47.548z M12.677,47.917   c-0.307-0.051-0.663-0.104-0.954-0.159c-0.02-0.002-0.033,0.003-0.056,0v-1.696c0.313,0.059,0.68,0.103,1.01,0.16V47.917z    M14.478,48.184c-0.353-0.049-0.671-0.11-1.004-0.159v-1.646c0.336,0.055,0.65,0.113,1.004,0.159V48.184z M16.332,48.447   c-0.33-0.037-0.686-0.12-1.004-0.159v-1.644c0.318,0.041,0.673,0.069,1.004,0.106V48.447z M18.135,48.606   c-0.332-0.03-0.634-0.074-0.955-0.106v-1.696c0.323,0.033,0.624,0.077,0.955,0.106V48.606z M19.989,48.766   c-0.33-0.021-0.686-0.027-1.008-0.055v-1.748c0.322,0.024,0.678,0.03,1.008,0.051V48.766z M21.845,48.869   c-0.343-0.016-0.673-0.031-1.006-0.051V47.07c0.333,0.02,0.665,0.036,1.006,0.053V48.869z M23.646,48.925   c-0.325-0.011-0.637-0.038-0.955-0.056v-1.694c0.318,0.016,0.632,0.043,0.955,0.054V48.925z M25.448,48.978   c-0.317-0.006-0.644,0.008-0.955,0v-1.696c0.312,0.007,0.637-0.006,0.955,0V48.978z M27.356,49.03c-0.342,0-0.668-0.05-1.01-0.053   v-1.696c0.341,0.006,0.663,0.052,1.01,0.052V49.03z M29.105,48.978c-0.305,0.002-0.596,0.053-0.902,0.053v-1.697   c0.307,0,0.597,0.005,0.902,0V48.978z M30.96,48.978c-0.315,0.008-0.638-0.006-0.957,0v-1.696c0.323-0.006,0.642,0.007,0.957,0   V48.978z M32.812,48.925c-0.327,0.014-0.67-0.011-1.005,0v-1.695c0.333-0.011,0.68,0.011,1.005,0V48.925z M34.618,48.818   c-0.304,0.02-0.592,0.035-0.904,0.051v-1.694c0.305-0.014,0.602-0.034,0.904-0.053V48.818z M36.472,48.659   c-0.33,0.024-0.674,0.085-1.009,0.106V47.07c0.332-0.021,0.685-0.027,1.009-0.056V48.659z M38.328,48.5   c-0.341,0.035-0.658,0.073-1.01,0.106v-1.643c0.353-0.03,0.665-0.074,1.01-0.107V48.5z M40.127,48.289   c-0.305,0.039-0.639,0.071-0.955,0.104v-1.641c0.318-0.032,0.648-0.016,0.955-0.055V48.289z M41.983,48.074   c-0.346,0.055-0.648,0.112-1.008,0.159v-1.641c0.36-0.046,0.662-0.11,1.008-0.159V48.074z M43.837,47.758   c-0.312,0.059-0.677,0.103-1.008,0.159v-1.643c0.332-0.055,0.69-0.102,1.008-0.159V47.758z M45.587,47.389   c-0.302,0.071-0.577,0.142-0.902,0.21v-1.643c0.332-0.066,0.589-0.139,0.902-0.212V47.389z M47.491,46.856   c-0.32,0.105-0.634,0.219-1.005,0.319v-1.642c0.335-0.088,0.698-0.17,1.005-0.266V46.856z M49.296,46.17   c-0.109,0.055-0.2,0.099-0.317,0.159c-0.17,0.077-0.444,0.135-0.637,0.208v-1.588c0.316-0.112,0.676-0.198,0.954-0.316V46.17z    M51.041,44.737c-0.241,0.308-0.515,0.587-0.845,0.849v-1.378c0.328-0.172,0.594-0.375,0.845-0.583V44.737z M5.735,41.665   c0.205-0.198,0.627-0.441,1.163-0.692c1.07-0.493,2.71-0.971,4.769-1.376c4.127-0.807,9.906-1.323,16.273-1.323   c6.364,0,12.143,0.516,16.266,1.323c2.061,0.406,3.699,0.883,4.772,1.376c0.533,0.251,0.957,0.494,1.163,0.692   c0.208,0.197,0.16,0.25,0.16,0.263c0,0.017,0.048,0.121-0.16,0.318c-0.206,0.198-0.63,0.442-1.163,0.691   c-1.074,0.494-2.712,0.972-4.772,1.378c-4.124,0.804-9.902,1.322-16.266,1.322c-6.368,0-12.146-0.518-16.273-1.322   c-2.059-0.406-3.698-0.884-4.769-1.378c-0.536-0.249-0.958-0.493-1.163-0.691c-0.208-0.198-0.214-0.302-0.214-0.318   C5.521,41.915,5.527,41.862,5.735,41.665z M5.31,43.997v1.323c-0.178-0.144-0.359-0.319-0.528-0.479l-0.056-1.27   C4.907,43.729,5.085,43.859,5.31,43.997z"></path><path fill="#000000" d="M66.837,65.881c-1.121-0.854-2.669-1.771-4.666-2.649c-3.989-1.752-9.596-3.515-15.897-4.929   c-6.296-1.409-12.123-2.21-16.481-2.332c-2.177-0.06-3.974,0.077-5.353,0.372c-0.033,0.007-0.059,0.019-0.091,0.026   c-2.881-2.254-5.961-3.788-8.912-4.515c-4.002-0.984-7.835-0.422-10.364,2.047c-0.993,0.972-1.554,1.524-2.432,2.366   c-2.529,2.469-3.144,6.265-2.26,10.278c0.877,4.017,3.24,8.333,6.892,12.08c3.654,3.744,7.903,6.198,11.903,7.19   c3.999,0.991,7.839,0.499,10.371-1.97c0.856-0.859,1.554-1.47,2.425-2.369c2.529-2.47,3.189-6.288,2.303-10.314   c-0.113-0.515-0.252-1.034-0.415-1.558c2.826,0.905,5.954,1.771,9.341,2.53c6.299,1.412,12.123,2.165,16.481,2.28   c2.183,0.053,3.923-0.023,5.3-0.32c0.688-0.15,1.312-0.342,1.803-0.635c0.488-0.297,0.764-0.62,0.899-1.22   c0.287-1.118,0.591-2.282,0.902-3.443c0.132-0.601-0.11-1.115-0.424-1.591C67.847,66.732,67.396,66.31,66.837,65.881z    M2.555,57.244c0.086-0.215,1.504-1.646,2.051-2.151c-0.157,0.383-0.825,0.838-1.379,2.306l-1.064,1.112   C2.286,58.108,2.39,57.694,2.555,57.244z M1.732,60.117l1.062-1.111c-0.061,0.28-0.109,0.573-0.16,0.9L1.57,60.94   C1.61,60.675,1.676,60.407,1.732,60.117z M1.478,62.288l0.987-0.96c0.016,0.399,0.058,0.821,0.099,1.237l-1.022,0.998   C1.498,63.166,1.471,62.737,1.478,62.288z M1.681,64.466l0.983-0.965c0.021,0.153,0.04,0.295,0.069,0.451   c0.015,0.078,0.055,0.148,0.071,0.227c0.038,0.172,0.105,0.348,0.143,0.524l-1.021,1C1.831,65.292,1.755,64.881,1.681,64.466z    M2.174,66.719L3.2,65.72c0.098,0.326,0.243,0.649,0.361,0.979l-1.099,1.072C2.345,67.412,2.263,67.072,2.174,66.719z    M2.788,68.638l1.1-1.074c0.069,0.178,0.14,0.348,0.218,0.531c0.092,0.201,0.193,0.399,0.293,0.601l-1.14,1.11   C3.089,69.421,2.931,69.015,2.788,68.638z M3.589,70.596l1.176-1.148c0.125,0.242,0.268,0.476,0.403,0.721l-1.18,1.146   C3.858,71.067,3.709,70.843,3.589,70.596z M4.431,72.066L5.61,70.92c0.084,0.141,0.168,0.272,0.256,0.418   c0.105,0.168,0.181,0.356,0.29,0.524l-1.173,1.148C4.785,72.703,4.608,72.38,4.431,72.066z M5.461,73.729l1.212-1.186   c0.185,0.262,0.353,0.532,0.554,0.796c0.018,0.027,0.053,0.05,0.071,0.076l-1.252,1.218C5.829,74.343,5.665,74.026,5.461,73.729z    M7.266,76.115c-0.236-0.279-0.439-0.553-0.663-0.833l1.216-1.187c0.011,0.015,0.024,0.023,0.033,0.04   c0.182,0.224,0.329,0.458,0.518,0.68c0.035,0.039,0.076,0.075,0.112,0.113L7.266,76.115z M7.86,76.721l1.176-1.146   c0.203,0.218,0.414,0.425,0.628,0.643l-1.212,1.185C8.244,77.188,8.058,76.939,7.86,76.721z M9.044,78.011l1.25-1.225   c0.285,0.272,0.561,0.543,0.851,0.799l-1.252,1.221C9.61,78.553,9.32,78.279,9.044,78.011z M10.563,79.338l1.214-1.183   c0.206,0.177,0.425,0.322,0.632,0.497l-1.252,1.217C10.95,79.704,10.77,79.513,10.563,79.338z M11.898,80.405l1.214-1.183   c0.167,0.129,0.31,0.294,0.481,0.417c0.017,0.011,0.021,0.028,0.038,0.038l-1.174,1.148C12.271,80.695,12.081,80.539,11.898,80.405   z M13.198,81.283l1.178-1.146c0.138,0.086,0.275,0.182,0.409,0.266c0.091,0.061,0.17,0.134,0.261,0.192l-1.176,1.146   C13.64,81.604,13.426,81.432,13.198,81.283z M14.686,82.202l1.176-1.146c0.272,0.16,0.548,0.31,0.822,0.458l-1.178,1.146   C15.227,82.521,14.965,82.356,14.686,82.202z M16.327,83.047l1.135-1.11c0.106,0.048,0.202,0.107,0.3,0.153   c0.035,0.017,0.076,0.022,0.112,0.039c0.124,0.057,0.248,0.1,0.373,0.152l-1.14,1.111C16.849,83.287,16.588,83.163,16.327,83.047z    M18.899,84.013c-0.279-0.082-0.54-0.211-0.821-0.307l1.064-1.037c0.275,0.107,0.549,0.209,0.82,0.31L18.899,84.013z    M19.833,84.287l1.024-0.998c0.261,0.077,0.526,0.137,0.785,0.198l-1.024,0.998C20.357,84.414,20.095,84.356,19.833,84.287z    M21.589,84.723l1.061-1.036c0.254,0.045,0.497,0.056,0.749,0.086L22.3,84.841C22.051,84.807,21.822,84.773,21.589,84.723z    M24.136,84.902c-0.259,0.017-0.518,0.074-0.754,0.067l1.104-1.072c0.012,0,0.312-0.018,0.746-0.065L24.136,84.902z M26.236,84.558   c-0.238,0.06-0.488,0.132-0.713,0.175l1.176-1.148c0.225-0.048,0.47-0.108,0.714-0.175L26.236,84.558z M28.758,83.723   c-0.255,0.105-0.473,0.165-0.716,0.254l1.366-1.329c0.18-0.089,0.39-0.158,0.566-0.258C30.329,82.408,28.416,83.732,28.758,83.723z    M30.788,80.266c-0.358,0.346-0.786,0.625-1.209,0.884c-0.271,0.158-0.531,0.312-0.831,0.438c-0.299,0.126-0.616,0.236-0.94,0.327   c-0.013,0.003-0.023,0.033-0.038,0.036c-0.307,0.084-0.643,0.087-0.978,0.135c-0.343,0.057-0.685,0.122-1.047,0.139   c-0.365,0.017-0.743,0.004-1.124-0.013c-0.762-0.043-1.575-0.142-2.397-0.33c-0.407-0.094-0.813-0.223-1.23-0.352   c-0.079-0.024-0.15-0.053-0.224-0.081c-0.038-0.01-0.076-0.026-0.111-0.036c-0.316-0.105-0.615-0.223-0.934-0.35   c-0.148-0.058-0.302-0.092-0.45-0.155c-0.266-0.113-0.548-0.261-0.818-0.386c-0.396-0.185-0.797-0.399-1.189-0.613   c-0.165-0.089-0.318-0.174-0.483-0.27c-0.117-0.063-0.226-0.123-0.338-0.192c-0.183-0.109-0.376-0.225-0.556-0.344   c-0.429-0.271-0.879-0.573-1.3-0.877c-0.424-0.304-0.813-0.614-1.226-0.952c-0.83-0.675-1.663-1.4-2.448-2.204   c-0.383-0.391-0.757-0.81-1.108-1.212c-0.045-0.053-0.103-0.099-0.148-0.152c-0.324-0.376-0.592-0.753-0.886-1.135   c-0.327-0.422-0.663-0.855-0.957-1.283c-0.254-0.371-0.474-0.726-0.7-1.099c-0.146-0.237-0.265-0.479-0.404-0.716   c-0.148-0.264-0.304-0.495-0.439-0.756c-0.053-0.101-0.099-0.201-0.148-0.3c-0.148-0.304-0.302-0.604-0.439-0.907   c-0.046-0.109-0.061-0.229-0.105-0.34c-0.081-0.185-0.187-0.38-0.257-0.564c-0.18-0.465-0.328-0.934-0.468-1.392   c-0.146-0.466-0.294-0.934-0.396-1.391c-0.018-0.081-0.058-0.148-0.074-0.227c-0.04-0.213-0.071-0.429-0.104-0.64   c-0.033-0.198-0.044-0.402-0.064-0.601c-0.048-0.407-0.092-0.771-0.101-1.161c-0.01-0.38,0.026-0.726,0.053-1.089   c0.025-0.323,0.033-0.663,0.084-0.97c0.018-0.076,0.066-0.148,0.081-0.225c0.038-0.204,0.104-0.402,0.157-0.599   c0.021-0.086,0.017-0.177,0.042-0.261c0.101-0.326,0.211-0.632,0.348-0.932c0.13-0.296,0.291-0.553,0.46-0.822   c0.267-0.417,0.559-0.839,0.914-1.184c2.004-1.953,5.163-2.51,8.791-1.617c3.627,0.891,7.627,3.19,11.083,6.733   c3.456,3.544,5.691,7.635,6.493,11.285C33.423,75.166,32.79,78.312,30.788,80.266z M32.121,65.527   c0.196,0.064,0.392,0.128,0.587,0.195l-0.146,0.647C32.423,66.089,32.271,65.808,32.121,65.527z M34.085,67.896   c-0.317-0.102-0.592-0.218-0.899-0.319l0.369-1.64c0.311,0.099,0.584,0.214,0.902,0.314L34.085,67.896z M35.835,68.478   c-0.318-0.093-0.646-0.17-0.953-0.264l0.369-1.696c0.311,0.094,0.691,0.172,1.008,0.264L35.835,68.478z M37.635,69.01   c-0.328-0.094-0.63-0.226-0.955-0.318l0.373-1.695c0.323,0.093,0.626,0.173,0.957,0.264L37.635,69.01z M39.387,69.433   c-0.315-0.083-0.594-0.18-0.901-0.263l0.368-1.646c0.307,0.083,0.59,0.186,0.902,0.268L39.387,69.433z M41.134,69.854   c-0.307-0.074-0.65-0.132-0.952-0.209l0.368-1.646c0.305,0.077,0.648,0.139,0.955,0.215L41.134,69.854z M42.989,70.331   c-0.332-0.075-0.627-0.186-0.952-0.264l0.366-1.643c0.33,0.079,0.62,0.189,0.957,0.267L42.989,70.331z M44.685,70.651   c-0.298-0.064-0.602-0.039-0.904-0.105l0.373-1.695c0.3,0.065,0.605,0.148,0.901,0.211L44.685,70.651z M46.486,71.075   c-0.307-0.062-0.59-0.146-0.899-0.209l0.368-1.646c0.312,0.064,0.594,0.151,0.902,0.213L46.486,71.075z M48.342,71.446   c-0.325-0.056-0.681-0.148-1.008-0.211l0.373-1.699c0.325,0.066,0.685,0.208,1.006,0.268L48.342,71.446z M50.089,71.711   c-0.297-0.048-0.542-0.053-0.846-0.106l0.37-1.695c0.304,0.053,0.553,0.11,0.848,0.158L50.089,71.711z M51.945,71.977   c-0.327-0.048-0.679-0.055-1.007-0.107l0.37-1.642c0.328,0.05,0.683,0.11,1.008,0.16L51.945,71.977z M53.799,72.241   c-0.336-0.041-0.661-0.059-1.006-0.105l0.369-1.646c0.354,0.051,0.665,0.065,1.008,0.108L53.799,72.241z M55.602,72.4   c-0.307-0.03-0.643-0.069-0.953-0.105l0.369-1.591c0.317,0.036,0.647,0.129,0.956,0.162L55.602,72.4z M57.458,72.613   c-0.35-0.025-0.646-0.021-1.012-0.053l0.373-1.593c0.359,0.033,0.66,0.03,1.008,0.057L57.458,72.613z M59.364,72.72   c-0.318-0.011-0.727-0.036-1.062-0.056l0.374-1.64c0.333,0.018,0.682,0.091,1.005,0.104L59.364,72.72z M61.111,72.72   c-0.31,0.004-0.567,0.004-0.9,0l0.371-1.592c0.34,0.009,0.579,0.002,0.904,0L61.111,72.72z M63.126,72.613   c-0.337,0.029-0.673,0.09-1.058,0.106l0.369-1.592c0.349-0.012,0.685-0.027,1.008-0.053L63.126,72.613z M65.036,72.346   c-0.121,0.034-0.241,0.077-0.373,0.107c-0.182,0.039-0.427,0.02-0.637,0.053l0.318-1.538c0.335-0.039,0.708-0.048,1.01-0.102   L65.036,72.346z M60.475,69.433c-4.196-0.115-9.948-0.886-16.159-2.278c-5.247-1.177-9.976-2.584-13.638-4.012   c-0.957-1.41-2.065-2.789-3.338-4.094c-0.422-0.433-0.854-0.845-1.291-1.243c1.021-0.096,2.26-0.123,3.689-0.084   c4.205,0.116,9.952,0.883,16.164,2.277c6.214,1.394,11.735,3.134,15.584,4.824c1.92,0.843,3.408,1.668,4.345,2.384   c0.467,0.359,0.847,0.716,1.006,0.952c0.159,0.239,0.111,0.252,0.103,0.266c0,0.015-0.018,0.118-0.262,0.267   c-0.246,0.148-0.693,0.301-1.274,0.423C64.251,69.365,62.578,69.49,60.475,69.433z M67.05,71.343   c-0.304,0.241-0.632,0.45-1.01,0.634l0.266-1.325c0.358-0.099,0.662-0.277,0.952-0.424L67.05,71.343z"></path><path fill="#000000" d="M46.194,33.964c0.195,0.583,0.662,0.931,1.176,1.176c0.516,0.241,1.125,0.369,1.828,0.45   c1.399,0.152,3.2,0.104,5.363-0.177c4.318-0.567,10.029-1.964,16.146-4.014v-0.002c6.12-2.047,11.518-4.374,15.309-6.525   c1.894-1.076,3.363-2.124,4.386-3.09c0.513-0.482,0.922-0.955,1.188-1.459c0.232-0.439,0.289-0.906,0.191-1.405   c-0.445-1.339-0.912-2.73-1.281-3.825c-0.236-0.395-0.615-0.695-1.017-0.884c-0.515-0.241-1.128-0.373-1.826-0.449   c-0.8-0.088-1.789-0.061-2.849,0.005c-0.783,0.05-1.578,0.099-2.497,0.219c-4.301,0.577-9.98,1.949-16.099,3.999   c-6.121,2.049-11.497,4.42-15.29,6.577c-1.895,1.078-3.378,2.068-4.401,3.039c-0.515,0.483-0.922,0.956-1.188,1.461   c-0.268,0.504-0.361,0.926-0.165,1.509C45.5,31.672,45.859,32.811,46.194,33.964z M90.042,16.202l0.453,1.19   c-0.221-0.093-0.429-0.159-0.688-0.217l-0.422-1.256C89.604,15.998,89.827,16.108,90.042,16.202z M87.491,15.437   c0.289,0.041,0.566,0.101,0.842,0.167l0.469,1.406c-0.312-0.033-0.727-0.018-1.074-0.032l-0.521-1.558   C87.289,15.427,87.414,15.427,87.491,15.437z M86.419,15.405l0.523,1.556c-0.343,0.002-0.683,0-1.06,0.02l-0.537-1.608   C85.767,15.355,86.06,15.397,86.419,15.405z M84.425,15.458l0.538,1.607c-0.33,0.027-0.639,0.012-0.988,0.053l-0.521-1.559   C83.793,15.523,84.111,15.482,84.425,15.458z M82.529,15.645c0.021-0.003,0.035-0.014,0.052-0.016l0.539,1.607   c-0.314,0.043-0.676,0.118-1.006,0.167l-0.538-1.607C81.883,15.751,82.239,15.686,82.529,15.645z M80.791,15.949l0.521,1.559   c-0.34,0.057-0.656,0.102-1.007,0.17l-0.521-1.558C80.135,16.053,80.456,16.004,80.791,15.949z M78.948,16.286l0.52,1.559   c-0.318,0.063-0.663,0.148-0.986,0.22l-0.537-1.608C78.268,16.388,78.629,16.35,78.948,16.286z M77.121,16.675l0.537,1.609   c-0.316,0.071-0.613,0.124-0.938,0.2l-0.538-1.608C76.504,16.799,76.808,16.744,77.121,16.675z M75.344,17.046l0.56,1.657   c-0.315,0.08-0.655,0.187-0.974,0.269l-0.556-1.657C74.694,17.233,75.032,17.123,75.344,17.046z M73.553,17.535l0.556,1.657   c-0.325,0.088-0.644,0.182-0.973,0.272l-0.555-1.66C72.911,17.713,73.229,17.623,73.553,17.535z M71.776,18.073l0.539,1.607   c-0.304,0.088-0.612,0.165-0.922,0.255l-0.538-1.607C71.166,18.234,71.468,18.163,71.776,18.073z M70.037,18.544l0.535,1.608   c-0.297,0.093-0.6,0.208-0.904,0.304L69.13,18.85C69.432,18.754,69.737,18.638,70.037,18.544z M68.277,19.137l0.538,1.608   c-0.322,0.102-0.646,0.16-0.972,0.269l-0.541-1.608C67.629,19.296,67.956,19.239,68.277,19.137z M66.501,19.674l0.537,1.608   c-0.29,0.099-0.565,0.187-0.855,0.286l-0.521-1.559C65.95,19.912,66.21,19.774,66.501,19.674z M64.81,20.294l0.54,1.608   c-0.302,0.11-0.609,0.198-0.906,0.305L63.906,20.6C64.198,20.493,64.51,20.405,64.81,20.294z M63.116,20.92l0.541,1.608   c-0.312,0.116-0.652,0.204-0.955,0.317l-0.543-1.607C62.468,21.124,62.803,21.037,63.116,20.92z M61.326,21.576l0.538,1.608   c-0.286,0.112-0.557,0.222-0.84,0.337l-0.538-1.607C60.771,21.799,61.036,21.688,61.326,21.576z M59.701,22.232l0.538,1.608   c-0.307,0.127-0.637,0.245-0.938,0.37l-0.521-1.558C59.081,22.523,59.39,22.358,59.701,22.232z M57.992,22.974l0.521,1.555   c-0.327,0.14-0.607,0.281-0.917,0.42l-0.526-1.556C57.38,23.253,57.671,23.109,57.992,22.974z M56.3,23.764l0.52,1.556   c-0.285,0.134-0.602,0.222-0.886,0.353l-0.503-1.509C55.708,24.032,56.015,23.895,56.3,23.764z M54.644,24.485l0.52,1.559   c-0.323,0.155-0.592,0.313-0.902,0.469l-0.522-1.559C54.048,24.795,54.318,24.647,54.644,24.485z M52.984,25.377l0.521,1.559   c-0.299,0.153-0.621,0.312-0.904,0.469l-0.521-1.558C52.359,25.689,52.688,25.534,52.984,25.377z M51.328,26.266l0.521,1.559   c-0.294,0.17-0.514,0.318-0.785,0.488l-0.525-1.559C50.804,26.59,51.041,26.437,51.328,26.266z M49.753,27.243l0.521,1.555   c-0.29,0.191-0.604,0.385-0.866,0.572L48.9,27.864C49.172,27.66,49.434,27.454,49.753,27.243z M52.824,29.229   c3.655-2.074,8.969-4.402,15.006-6.424c6.036-2.021,11.68-3.366,15.848-3.91c2.08-0.273,3.787-0.34,4.959-0.208   c0.589,0.062,1.067,0.159,1.324,0.28c0.259,0.121,0.299,0.222,0.302,0.236c0.005,0.014,0.017,0.065-0.118,0.318   c-0.131,0.252-0.457,0.621-0.886,1.023c-0.854,0.81-2.254,1.784-4.083,2.821c-3.654,2.078-8.969,4.404-15.008,6.424   c-6.038,2.024-11.68,3.368-15.848,3.912c-2.082,0.274-3.784,0.34-4.957,0.208c-0.587-0.062-1.069-0.159-1.325-0.28   c-0.259-0.124-0.231-0.189-0.236-0.204c-0.005-0.013-0.083-0.098,0.049-0.351c0.134-0.252,0.457-0.619,0.884-1.023   C49.6,31.244,50.995,30.266,52.824,29.229z M47.661,28.837c0.132-0.129,0.373-0.269,0.536-0.403l0.504,1.509   c-0.266,0.208-0.576,0.4-0.805,0.604l-0.488-1.46C47.494,28.999,47.567,28.928,47.661,28.837z M46.74,29.926l0.438,1.306   c-0.254,0.269-0.444,0.546-0.617,0.823l-0.353-1.053C46.34,30.634,46.511,30.278,46.74,29.926z"></path><path fill="#000000" d="M97.357,37.983c-0.876-0.846-1.437-1.394-2.43-2.369c-2.528-2.466-6.364-3.032-10.367-2.044   c-4.002,0.981-8.246,3.447-11.9,7.192c-3.655,3.745-6.049,8.088-6.935,12.113c-0.886,4.028-0.229,7.849,2.301,10.316   c0.873,0.894,1.57,1.511,2.427,2.365c2.532,2.47,6.367,2.964,10.367,1.973c4.001-0.989,8.253-3.447,11.903-7.192   c3.656-3.747,6.015-8.063,6.896-12.077C100.504,44.244,99.885,40.448,97.357,37.983z M98.43,42.653l-1.063-1.035   c-0.052-0.326-0.1-0.618-0.162-0.896l1.062,1.111C98.324,42.12,98.391,42.389,98.43,42.653z M97.445,38.956   c0.163,0.454,0.269,0.865,0.391,1.271l-1.063-1.114c-0.553-1.465-1.223-1.921-1.378-2.305   C95.938,37.31,97.356,38.745,97.445,38.956z M71.24,65.438c0.343,0.011-1.569-1.316-1.214-1.336   c0.173,0.101,0.386,0.172,0.563,0.256l1.368,1.331C71.715,65.603,71.494,65.541,71.24,65.438z M72.193,63.626   c-0.325-0.088-0.644-0.199-0.941-0.323c-0.299-0.127-0.562-0.279-0.833-0.44c-0.421-0.258-0.849-0.538-1.206-0.885   c-2.005-1.952-2.637-5.099-1.833-8.745c0.8-3.649,3.037-7.743,6.493-11.288c3.455-3.539,7.456-5.838,11.083-6.733   c3.628-0.889,6.786-0.337,8.789,1.619c0.356,0.345,0.646,0.768,0.916,1.186c0.166,0.269,0.326,0.526,0.46,0.816   c0.137,0.303,0.246,0.607,0.347,0.933c0.026,0.086,0.02,0.177,0.041,0.265c0.053,0.196,0.117,0.394,0.158,0.597   c0.013,0.077,0.062,0.148,0.077,0.225c0.052,0.307,0.063,0.647,0.086,0.972c0.025,0.359,0.064,0.708,0.053,1.086   c-0.008,0.393-0.053,0.755-0.099,1.164c-0.023,0.198-0.033,0.398-0.066,0.598c-0.032,0.209-0.064,0.428-0.104,0.639   c-0.015,0.08-0.055,0.146-0.072,0.228c-0.104,0.455-0.253,0.922-0.396,1.389c-0.14,0.461-0.288,0.927-0.47,1.394   c-0.071,0.187-0.175,0.378-0.258,0.565c-0.044,0.11-0.058,0.23-0.108,0.34c-0.132,0.3-0.287,0.601-0.434,0.903   c-0.054,0.102-0.096,0.202-0.149,0.302c-0.138,0.263-0.292,0.493-0.44,0.754c-0.137,0.241-0.259,0.477-0.403,0.719   c-0.228,0.37-0.444,0.724-0.698,1.095c-0.294,0.431-0.632,0.861-0.957,1.287c-0.295,0.381-0.563,0.761-0.886,1.137   c-0.046,0.049-0.104,0.099-0.149,0.148c-0.352,0.405-0.725,0.821-1.109,1.212c-0.783,0.807-1.616,1.531-2.447,2.206   c-0.411,0.338-0.8,0.648-1.225,0.953c-0.42,0.304-0.87,0.605-1.3,0.878c-0.18,0.115-0.372,0.232-0.561,0.343   c-0.108,0.064-0.22,0.125-0.333,0.191c-0.165,0.096-0.318,0.178-0.483,0.269c-0.396,0.215-0.797,0.428-1.191,0.615   c-0.269,0.126-0.551,0.268-0.818,0.383c-0.146,0.062-0.305,0.1-0.448,0.155c-0.318,0.125-0.618,0.244-0.934,0.35   c-0.035,0.012-0.074,0.03-0.11,0.04c-0.076,0.024-0.147,0.054-0.225,0.075c-0.421,0.133-0.823,0.26-1.235,0.355   c-0.816,0.186-1.63,0.288-2.392,0.328c-0.382,0.02-0.759,0.031-1.125,0.013c-0.363-0.015-0.706-0.084-1.05-0.135   c-0.331-0.05-0.668-0.057-0.975-0.137C72.213,63.66,72.207,63.631,72.193,63.626z M73.762,66.269l-1.178-1.146   c0.244,0.066,0.492,0.129,0.717,0.178l1.174,1.146C74.252,66.404,73.998,66.33,73.762,66.269z M75.863,66.616l-1.1-1.072   c0.438,0.047,0.739,0.066,0.747,0.066l1.104,1.072C76.379,66.689,76.123,66.632,75.863,66.616z M77.7,66.558l-1.103-1.074   c0.254-0.029,0.497-0.041,0.751-0.084l1.061,1.036C78.175,66.484,77.949,66.518,77.7,66.558z M79.381,66.201l-1.022-1   c0.257-0.062,0.524-0.12,0.783-0.198l1.024,1C79.903,66.069,79.643,66.128,79.381,66.201z M81.1,65.729l-1.061-1.04   c0.269-0.099,0.544-0.201,0.818-0.307l1.063,1.036C81.641,65.515,81.38,65.646,81.1,65.729z M82.89,65.109l-1.137-1.115   c0.125-0.053,0.249-0.096,0.373-0.153c0.036-0.017,0.077-0.021,0.111-0.038c0.1-0.045,0.195-0.105,0.301-0.155l1.135,1.111   C83.412,64.878,83.15,65,82.89,65.109z M84.494,64.373l-1.18-1.147c0.276-0.149,0.55-0.298,0.822-0.457l1.178,1.146   C85.034,64.071,84.773,64.233,84.494,64.373z M86.131,63.456l-1.177-1.148c0.091-0.059,0.169-0.132,0.261-0.191   c0.131-0.085,0.268-0.183,0.408-0.269l1.178,1.148C86.573,63.143,86.36,63.315,86.131,63.456z M87.543,62.537l-1.177-1.146   c0.014-0.008,0.023-0.028,0.038-0.036c0.169-0.122,0.317-0.29,0.481-0.419l1.215,1.181C87.917,62.255,87.728,62.407,87.543,62.537z    M88.843,61.585l-1.252-1.221c0.206-0.175,0.426-0.323,0.632-0.498l1.212,1.187C89.229,61.228,89.051,61.421,88.843,61.585z    M90.103,60.52l-1.248-1.221c0.29-0.254,0.565-0.529,0.85-0.798l1.25,1.221C90.679,59.992,90.39,60.266,90.103,60.52z    M91.548,59.114l-1.212-1.185c0.214-0.216,0.422-0.422,0.628-0.642l1.177,1.146C91.938,58.654,91.756,58.901,91.548,59.114z    M92.734,57.826l-1.216-1.187c0.034-0.037,0.075-0.07,0.112-0.112c0.189-0.221,0.333-0.455,0.515-0.679   c0.011-0.016,0.024-0.025,0.036-0.04l1.216,1.185C93.173,57.273,92.968,57.551,92.734,57.826z M93.951,56.35l-1.252-1.221   c0.02-0.028,0.05-0.046,0.072-0.076c0.2-0.264,0.366-0.534,0.555-0.795l1.213,1.187C94.336,55.741,94.171,56.056,93.951,56.35z    M95.016,54.725l-1.175-1.146c0.11-0.171,0.188-0.356,0.29-0.527c0.09-0.143,0.175-0.28,0.26-0.416l1.176,1.148   C95.39,54.092,95.213,54.418,95.016,54.725z M96.009,53.027l-1.177-1.147c0.136-0.245,0.277-0.475,0.402-0.716l1.177,1.146   C96.29,52.558,96.139,52.78,96.009,53.027z M96.737,51.521l-1.137-1.11c0.101-0.201,0.2-0.398,0.294-0.604   c0.077-0.178,0.148-0.352,0.216-0.526l1.103,1.072C97.067,50.73,96.906,51.137,96.737,51.521z M97.537,49.485l-1.099-1.074   c0.119-0.329,0.263-0.65,0.361-0.979l1.024,0.999C97.735,48.785,97.653,49.128,97.537,49.485z M98.072,47.416l-1.02-0.999   c0.038-0.176,0.104-0.351,0.142-0.527c0.019-0.077,0.055-0.147,0.072-0.224c0.03-0.155,0.048-0.3,0.069-0.451l0.983,0.963   C98.242,46.592,98.166,47.007,98.072,47.416z M98.46,45.276l-1.023-1c0.042-0.414,0.083-0.833,0.096-1.236l0.983,0.963   C98.527,44.453,98.503,44.881,98.46,45.276z"></path><path fill="#000000" d="M47.801,64.528c-0.04-0.105,0.261-0.11,0.633-0.093c0.667,0.033,1.925,0.401,2.57,0.423   c0.302,0.012,0.438-0.078,0.319-0.182c-0.132-0.122-0.727-0.268-0.846-0.386c0.079-0.109,0.359-0.146,0.617-0.253   c0.381,0.019,1.169,0.263,1.36,0.21c0.045-0.206-0.73-0.502-1.084-0.785c-0.414-0.318,0.159-0.531-1.024-1.06   c0.218-0.072,1.402,0.185,1.347,0.043c-0.147-0.376-2.562-1.052-4.2-1.481c-1.635-0.427-3.241-0.742-4.749-0.93   c-1.64-0.201-3.066-0.366-4.2-0.081c-0.216,0.56-0.193,0.81,0.714,1.381c0.318,0.267,1.052,0.689,1.488,0.871   c0.006,0.209-0.909,0.176-1.457,0.233c-1.968-0.01-5.477,0.27-4.962,0.806c3.979,1.949,15.369,4.587,19.747,4.565   C54.625,67.57,49.464,65.627,47.801,64.528z"></path><path fill="#000000" d="M23.735,67.666c-0.85-0.538-2.093-1.108-2.563-1.194c-0.767-0.718-1.021-1.709-1.452-2.561   c-0.765-2.346-3.222-7.538-4.954-8.756c-5.47-1.896-10.397,2.808-8.525,8.169c1.102,1.498,6.052,1.929,9.363,3.687   c0.37,0.315,0.512,0.698,0.597,1.087c0.15,0.687-0.671,0.945-0.478,1.66c0.077,0.316,0.46,0.791,0.787,1.003   c0.389,0.254,0.67,0.032,1.058,0.307c0.425,0.462,0.674,0.927,1.169,1.609c0.099,0.403-0.48,0.509-0.208,0.921   c0.769,0.759,1.531,0.845,2.422,1.396c0.983,0.587,1.986,2.001,3.421,2.386c0.356,0.515-0.089,1.068,0.404,1.484   c1.298,1.108,2.77,0.518,3.654,0c0.894-0.497,1.384-1.354,1.45-2.534c0.058-1.286,0.071-2.447-1.435-4.797   C26.33,69.354,25.43,68.523,23.735,67.666z"></path><path fill="#000000" d="M10.16,42.766c1.07,0.319,2.085,0.594,5.46,0.741c3.779-0.06,5.297-0.106,7.537-0.36   c1.201-0.101,2.794-0.302,3.283-0.407c1.3-0.037,2.389,0.126,3.523,0.209c2.719,0.342,9.434,0.902,12.014,0.72   c6.451-1.022,6.628-3.445,0.284-4.2c-2.29-0.053-7.006,1.173-11.425,1.65c-0.605,0.024-1.074-0.026-1.48-0.094   c-0.746-0.121-0.255-0.402-1.036-0.518c-0.348-0.053-1.099-0.062-1.579-0.023c-0.561,0.044-0.612,0.171-1.186,0.212   c-0.779,0.004-1.399-0.038-2.45-0.062c-0.429-0.07-0.026-0.247-0.624-0.273c-1.33,0.028-2.083,0.214-3.342,0.323   c-1.361,0.125-3.503,0.064-5.092,0.358c-0.755-0.024-0.851-0.274-1.641-0.239c-2.123,0.091-2.892,0.624-3.197,0.98   C8.861,42.143,9.178,42.473,10.16,42.766z"></path><path fill="#000000" d="M66.808,26.674c0.089,0.073-0.163,0.236-0.485,0.414c-0.584,0.324-1.853,0.669-2.411,0.994   c-0.264,0.146-0.335,0.299-0.177,0.326c0.178,0.033,0.759-0.154,0.922-0.11c-0.006,0.135-0.224,0.313-0.389,0.544   c-0.332,0.187-1.134,0.388-1.269,0.534c0.074,0.204,0.889,0.055,1.339,0.116c0.52,0.056,0.144,0.545,1.432,0.379   c-0.145,0.178-1.289,0.581-1.166,0.675c0.325,0.248,2.735-0.436,4.358-0.932c1.616-0.489,3.145-1.06,4.528-1.695   c1.501-0.689,2.804-1.302,3.615-2.15c-0.113-0.601-0.266-0.806-1.337-0.823c-0.414-0.065-1.268-0.048-1.726,0.025   c-0.121-0.181,0.676-0.632,1.108-0.972c1.681-1.031,4.517-3.128,3.792-3.321c-4.414,0.397-15.501,4.117-19.208,6.448   C59.393,27.631,64.814,26.597,66.808,26.674z"></path><path fill="#000000" d="M77.891,51.261c0.466,0.371,0.193,1.361,0.202,2.094c-0.44,2.243-0.579,6.776,0.7,7.148   c5.109-1.065,13.298-9.413,14.184-14.481c-0.412-1.064-5.754,1.374-8.504,1.312c-0.242-0.145-0.191-0.5-0.07-0.893   c0.216-0.706,1.284-1.495,1.471-2.192c0.091-0.329-0.074-0.645-0.328-0.7c-0.293-0.065-0.737,0.36-1.024,0.281   c-0.219-0.284-0.239-0.671-0.417-1.162c0.118-0.406,0.823-0.873,0.747-1.184c-0.438-0.425-1.254-0.065-1.95-0.171   c-0.78-0.095-1.123-1.136-2.525-0.723c-0.117-0.381,0.7-1.283,0.38-1.47c-0.85-0.504-2.843,1.055-4.131,2.166   c-1.281,1.107-2.314,2.389-3.042,3.787c-0.795,1.516-1.456,2.863-1.073,4.676c1.171,1.25,1.726,1.674,3.165,1.658   C76.324,51.521,77.406,51.438,77.891,51.261z"></path></g></svg>