<svg xmlns="http://www.w3.org/2000/svg" xmlns:xlink="http://www.w3.org/1999/xlink" version="1.1" x="0px" y="0px" viewBox="0 0 100 125" enable-background="new 0 0 100 100" xml:space="preserve"><g><path d="M52.658,34.942c-3.221-0.76-6.713-0.45-9.907,1.124c-3.538,1.744-6.185,4.761-7.453,8.496   c-1.268,3.735-1.007,7.74,0.737,11.278c1.744,3.538,4.761,6.185,8.496,7.453c3.735,1.269,7.74,1.007,11.278-0.737   c3.538-1.744,6.185-4.761,7.453-8.496c1.268-3.735,1.007-7.74-0.737-11.278C60.5,38.672,56.804,35.92,52.658,34.942z M55.08,61.076   c-6.498,3.203-14.361,0.532-17.564-5.966c-3.203-6.497-0.532-14.361,5.966-17.564s14.361-0.532,17.564,5.966   S61.577,57.873,55.08,61.076z"/><path d="M93.654,47.627c-0.034-0.084-0.071-0.168-0.112-0.251L78.6,17.063c-0.017-0.035-0.035-0.07-0.054-0.104   c-0.876-1.637-2.899-2.296-4.578-1.469L8.031,47.992c-1.679,0.828-2.389,2.834-1.623,4.526c0.016,0.036,0.033,0.071,0.05,0.107   L21.4,82.937c0.041,0.083,0.085,0.163,0.131,0.241c0.913,1.536,2.87,2.136,4.501,1.332l65.937-32.502   C93.6,51.204,94.316,49.287,93.654,47.627z M63.7,54.209c-1.308,3.852-4.038,6.964-7.687,8.762   c-3.202,1.578-6.775,1.979-10.205,1.17c-0.479-0.113-0.954-0.249-1.426-0.41c-3.852-1.308-6.963-4.038-8.762-7.687   c-3.713-7.532-0.606-16.68,6.927-20.393c7.532-3.713,16.68-0.605,20.393,6.927C64.739,46.226,65.009,50.357,63.7,54.209z"/><path d="M54.135,46.948c-1.052-0.379-2.517-0.458-4.394-0.236c-0.92,0.121-1.651,0.189-2.195,0.205   c-0.543,0.016-0.946-0.014-1.206-0.09c-0.261-0.076-0.453-0.24-0.578-0.492c-0.143-0.291-0.128-0.572,0.048-0.843   c0.175-0.272,0.568-0.558,1.18-0.86c1.285-0.633,2.904-0.984,4.856-1.053L51.6,39.636c-1.873,0.096-3.591,0.477-5.154,1.143   l-1.243-2.523l-2.375,1.171l1.255,2.545c-1.539,0.968-2.538,2.007-2.998,3.117c-0.46,1.111-0.379,2.297,0.243,3.559   c0.407,0.826,0.883,1.449,1.428,1.87c0.545,0.421,1.226,0.708,2.043,0.861c0.817,0.153,1.8,0.17,2.948,0.051   c1.019-0.112,1.837-0.183,2.455-0.212c0.618-0.029,1.079-0.009,1.384,0.059c0.305,0.069,0.519,0.229,0.644,0.481   c0.181,0.367,0.159,0.704-0.066,1.009c-0.225,0.306-0.662,0.619-1.312,0.939c-0.788,0.388-1.776,0.688-2.965,0.898   c-1.189,0.211-2.338,0.309-3.448,0.295l1.877,3.809c1.884-0.092,3.683-0.513,5.395-1.262l1.479,3.001l2.375-1.17l-1.513-3.07   c1.466-0.96,2.408-2.043,2.827-3.247c0.419-1.204,0.311-2.449-0.322-3.734C55.995,48.088,55.187,47.328,54.135,46.948z"/></g><text x="0" y="115" fill="#000000" font-size="5px" font-weight="bold" font-family="'Helvetica Neue', Helvetica, Arial-Unicode, Arial, Sans-serif">Created by Pedro Santos</text><text x="0" y="120" fill="#000000" font-size="5px" font-weight="bold" font-family="'Helvetica Neue', Helvetica, Arial-Unicode, Arial, Sans-serif">from the Noun Project</text></svg>