<?xml version="1.0" encoding="iso-8859-1"?>
<!-- Generator: Adobe Illustrator 19.0.0, SVG Export Plug-In . SVG Version: 6.00 Build 0)  -->
<svg version="1.1" id="Layer_1" xmlns="http://www.w3.org/2000/svg" xmlns:xlink="http://www.w3.org/1999/xlink" x="0px" y="0px"
	 viewBox="0 0 512 512" style="enable-background:new 0 0 512 512;" xml:space="preserve">
<g id="Others">
</g>
<g id="Design">
</g>
<g id="SEO_x2F__Web">
</g>
<g id="Finance__x2F__Money">
</g>
<g id="E-Commerce__x2F__Shopping">
</g>
<g id="Strategy">
	<g id="money_palnt">
		<g>
			
				<radialGradient id="SVGID_1_" cx="256" cy="258" r="256" gradientTransform="matrix(1 0 0 -1 0 514)" gradientUnits="userSpaceOnUse">
				<stop  offset="0" style="stop-color:#2A93D8"/>
				<stop  offset="1" style="stop-color:#227FBB"/>
			</radialGradient>
			<circle style="fill:url(#SVGID_1_);" cx="256" cy="256" r="256"/>
			<path style="fill:#BFA072;" d="M163.253,378.139c0,0-15.643-2.518-15.643,13.475c0,15.99,17.729,12.387,17.729,12.387h131.189
				L308,377.803L163.253,378.139z"/>
			<path style="fill:#D4B17E;" d="M145.253,387.139c0,0-15.643-2.518-15.643,13.475c0,15.99,17.729,12.387,17.729,12.387h149.189
				L308,386.803L145.253,387.139z"/>
			<path style="fill:#BFA072;" d="M123.253,396.139c0,0-15.643-2.518-15.643,13.475c0,15.99,17.729,12.387,17.729,12.387h149.189
				L286,395.803L123.253,396.139z"/>
			<path style="fill:#D4B17E;" d="M137.253,403.139c0,0-15.643-2.518-15.643,13.475c0,15.99,17.729,12.387,17.729,12.387h149.189
				L300,402.803L137.253,403.139z"/>
			<rect x="360" y="383" style="fill:#ECF0F1;" width="22" height="94"/>
			<rect x="360" y="430" style="fill:#BDC3C7;" width="22" height="47"/>
			<path style="fill:#33495F;" d="M382,478.88c41.744-23.649,76.194-58.676,99.115-100.88H382V478.88z"/>
			<path style="fill:#2B3E51;" d="M382,478.88c21.849-12.378,41.701-27.868,58.944-45.88H382V478.88z"/>
			<g>
				<path style="fill:#D55400;" d="M263,291c-3.3,0-8.7,0-12,0h-72.781c-3.3,0-5.572,2.666-5.048,5.924l18.179,113.152
					c0.523,3.258,3.652,5.924,6.952,5.924H251c3.3,0,8.7,0,12,0h51.827c3.3,0,6.428-2.666,6.952-5.924l18.178-113.152
					c0.523-3.258-1.749-5.924-5.048-5.924H263z"/>
				<path style="fill:#B54700;" d="M321.778,410.076l9.089-56.576l9.089-56.576c0.523-3.258-1.749-5.924-5.048-5.924H263
					c-1.65,0-3.825,0-6,0v125c2.175,0,4.35,0,6,0h51.827C318.126,416,321.255,413.334,321.778,410.076z"/>
				<path style="fill:#33495F;" d="M286.604,202c1.1,0,2.689-0.578,3.532-1.286l44.859-37.671c0.842-0.707,0.775-0.799-0.151-0.205
					l-47.85,30.76c-0.926,0.596-2.544,0.82-3.596,0.5l-25.743-7.824c-1.052-0.319-1.722-1.461-1.489-2.535
					c0,0,11.137-51.232,22.561-70.271c13.169-21.949-33.793,45.186-33.793,45.186c-0.63,0.901-2.046,1.678-3.145,1.725
					l-46.667,2.023c-1.099,0.047-2.494-0.665-3.1-1.583l-34.104-51.668c-0.606-0.918-0.687-0.87-0.179,0.105l31.169,59.971
					c0.507,0.976,1.822,1.774,2.922,1.774h49.775c1.1,0,1.615,0.813,1.146,1.809c0,0-19.265,40.759-7.193,53.929
					c12.072,13.169-6.584,60.578-6.584,60.578c-0.403,1.023,0.156,1.718,1.242,1.544l33.364-5.367
					c1.086-0.176,2.001-1.218,2.034-2.317l1.346-45.734c0.033-1.1,0.04-3.138-1.374-6.272l-10.392-25.311
					c-0.408-1.021,0.158-1.857,1.258-1.857h30.152V202z"/>
				<g>
					<path style="fill:#2B3E51;" d="M244.484,284.533c-1.086,0.176-1.644-0.518-1.241-1.541c0,0,18.655-47.343,6.583-60.512
						c-12.072-13.17-6.523-49.238-6.523-49.238c0.167-1.088-0.59-2.076-1.684-2.197l-35.533-3.947
						c-1.093-0.121-2.402-1.02-2.909-1.996l-0.626-1.209c-0.507-0.977-1.82-1.736-2.919-1.688l-4.51,0.195
						c-1.099,0.048-2.494-0.664-3.1-1.582l-34.104-51.668c-0.606-0.918-0.687-0.87-0.179,0.105l31.169,59.971
						c0.507,0.976,1.822,1.774,2.922,1.774h49.775c1.1,0,1.615,0.813,1.146,1.809c0,0-19.265,40.759-7.193,53.929
						c12.072,13.169-6.584,60.578-6.584,60.578c-0.403,1.023,0.156,1.718,1.242,1.544l33.364-5.367
						c1.086-0.176,1.989-0.785,2.006-1.355c0.017-0.571-0.857-0.894-1.943-0.717L244.484,284.533z"/>
				</g>
				<path style="fill:#E87E04;" d="M350,297c0,3.3-2.7,6-6,6H168c-3.3,0-6-2.7-6-6v-15c0-3.3,2.7-6,6-6h176c3.3,0,6,2.7,6,6V297z"/>
				<circle style="fill:#F4CC20;" cx="355.32" cy="158.598" r="30.5"/>
				<path style="fill:#F59D00;" d="M355.32,185.551c-14.861,0-26.952-12.091-26.952-26.953c0-14.86,12.091-26.951,26.952-26.951
					s26.952,12.091,26.952,26.951C382.272,173.46,370.182,185.551,355.32,185.551z"/>
				<circle style="fill:#F4CC20;" cx="355.32" cy="158.6" r="23.923"/>
				<g>
					<path style="fill:#F59D00;" d="M353.125,143.723c0-1.404,0.615-2.193,2.194-2.193c1.582,0,2.196,0.789,2.196,2.193v5.266h6.449
						c1.142,0,2.193,0.615,2.193,2.195c0,1.578-1.052,2.193-2.193,2.193h-15.093v3.029h15.093c1.184,0,2.193,1.008,2.193,2.195
						v7.412c0,1.186-1.009,2.193-2.193,2.193h-6.449v5.268c0,1.402-0.614,2.191-2.196,2.191c-1.579,0-2.194-0.789-2.194-2.191
						v-5.268h-6.449c-1.141,0-2.193-0.613-2.193-2.193c0-1.579,1.052-2.193,2.193-2.193h15.093v-3.025h-15.093
						c-1.185,0-2.193-1.013-2.193-2.193v-7.418c0-1.187,1.008-2.195,2.193-2.195h6.449V143.723z"/>
				</g>
				<circle style="fill:#F4CC20;" cx="156.68" cy="103.725" r="30.5"/>
				<path style="fill:#F59D00;" d="M156.68,130.677c-14.861,0-26.952-12.09-26.952-26.952c0-14.86,12.091-26.951,26.952-26.951
					s26.952,12.091,26.952,26.951C183.632,118.587,171.541,130.677,156.68,130.677z"/>
				<circle style="fill:#F4CC20;" cx="156.68" cy="103.727" r="23.923"/>
				<g>
					<path style="fill:#F59D00;" d="M154.485,88.85c0-1.404,0.615-2.193,2.194-2.193c1.582,0,2.196,0.789,2.196,2.193v5.266h6.449
						c1.142,0,2.193,0.615,2.193,2.195c0,1.578-1.052,2.193-2.193,2.193H150.23v3.029h15.093c1.184,0,2.193,1.008,2.193,2.195v7.412
						c0,1.186-1.009,2.193-2.193,2.193h-6.449v5.268c0,1.402-0.614,2.191-2.196,2.191c-1.579,0-2.194-0.789-2.194-2.191v-5.268
						h-6.449c-1.141,0-2.193-0.613-2.193-2.193c0-1.579,1.052-2.193,2.193-2.193h15.093v-3.025h-15.093
						c-1.185,0-2.193-1.013-2.193-2.193v-7.418c0-1.187,1.008-2.195,2.193-2.195h6.449V88.85H154.485z"/>
				</g>
				<circle style="fill:#F4CC20;" cx="285.083" cy="86.166" r="30.5"/>
				<path style="fill:#F59D00;" d="M285.083,113.117c-14.861,0-26.952-12.09-26.952-26.951s12.091-26.953,26.952-26.953
					s26.952,12.092,26.952,26.953S299.944,113.117,285.083,113.117z"/>
				<circle style="fill:#F4CC20;" cx="285.083" cy="86.166" r="23.923"/>
				<g>
					<path style="fill:#F59D00;" d="M282.888,71.291c0-1.405,0.615-2.193,2.194-2.193c1.582,0,2.196,0.788,2.196,2.193v5.266h6.449
						c1.141,0,2.193,0.613,2.193,2.195c0,1.576-1.052,2.193-2.193,2.193h-15.093v3.028h15.093c1.184,0,2.193,1.008,2.193,2.194
						v7.414c0,1.186-1.01,2.193-2.193,2.193h-6.449v5.268c0,1.402-0.615,2.191-2.196,2.191c-1.579,0-2.194-0.789-2.194-2.191v-5.268
						h-6.448c-1.142,0-2.193-0.615-2.193-2.193c0-1.58,1.052-2.193,2.193-2.193h15.093v-3.026H276.44
						c-1.186,0-2.193-1.013-2.193-2.194v-7.416c0-1.188,1.008-2.195,2.193-2.195h6.448V71.291z"/>
				</g>
				<path style="fill:#1ECA6B;" d="M265.783,275.525c0,0,14.682-62.008,89.538-50.484L265.783,275.525z"/>
				<path style="fill:#1AAF5D;" d="M265.783,275.525c0,0,80.894,6.352,89.538-50.484L265.783,275.525z"/>
				<path style="fill:#1ECA6B;" d="M232.904,275.736c0,0-62.276-40.818-91.36,17.348L232.904,275.736z"/>
				<path style="fill:#1AAF5D;" d="M141.544,293.084c0,0,29.303,22.498,57.453,7.683c28.149-14.815,33.907-25.03,33.907-25.03
					L141.544,293.084z"/>
				<path style="fill:#1ECA6B;" d="M187.224,205.287c0,0,54.181-1.771,45.68,70.449L187.224,205.287z"/>
				<path style="fill:#1AAF5D;" d="M187.224,205.287c0,0-23.19,60.236,45.68,70.449L187.224,205.287z"/>
				<path style="fill:#D55400;" d="M350,297v-15c0-3.3-2.7-6-6-6h-87v27h87C347.3,303,350,300.3,350,297z"/>
			</g>
			<path style="fill:#E5BF88;" d="M265.155,476.859L221.944,456h-43c0,0-17,3.418-17-11.916s15-12.957,15-12.957l56.028-0.285
				c0,0,24.654-45.793,88.654-19.574L327,378h17c0,0,3.703-0.9,6.908,2.306c2.802,2.802,9.092,8.532,9.092,8.532v81L265.155,476.859
				z"/>
			<path style="fill:#BFA072;" d="M321.626,411.268l26.39-32.863C345.822,377.562,344,378,344,378h-17L321.626,411.268z"/>
			<circle style="fill:#ECF0F1;" cx="175.944" cy="443.669" r="9"/>
		</g>
	</g>
</g>
<g>
</g>
<g>
</g>
<g>
</g>
<g>
</g>
<g>
</g>
<g>
</g>
<g>
</g>
<g>
</g>
<g>
</g>
<g>
</g>
<g>
</g>
<g>
</g>
<g>
</g>
<g>
</g>
<g>
</g>
</svg>
